<svg t="1596526097864" class="icon" viewBox="0 0 1024 1024" version="1.1" xmlns="http://www.w3.org/2000/svg" p-id="1976" width="16" height="16"><path d="M725.333333 64H85.333333a64 64 0 0 0-64 64v533.333333l131.605334-85.333333H725.333333a64 64 0 0 0 64-64V128a64 64 0 0 0-64-64z" fill="#333549" p-id="1977"></path><path d="M42.666667 128a42.666667 42.666667 0 0 1 42.666666-42.666667h640a42.666667 42.666667 0 0 1 42.666667 42.666667v384a42.666667 42.666667 0 0 1-42.666667 42.666667H152.938667a21.333333 21.333333 0 0 0-11.605334 3.413333L42.666667 622.08V128z" fill="#B9BECA" p-id="1978"></path><path d="M128 128h554.666667a42.666667 42.666667 0 0 1 42.666666 42.666667v298.666666a42.666667 42.666667 0 0 1-42.666666 42.666667H128a42.666667 42.666667 0 0 1-42.666667-42.666667V170.666667a42.666667 42.666667 0 0 1 42.666667-42.666667z" fill="#333549" p-id="1979"></path><path d="M128 149.333333a21.333333 21.333333 0 0 0-21.333333 21.333334v298.666666a21.333333 21.333333 0 0 0 21.333333 21.333334h554.666667a21.333333 21.333333 0 0 0 21.333333-21.333334V170.666667a21.333333 21.333333 0 0 0-21.333333-21.333334H128z" fill="#FFFFFF" p-id="1980"></path><path d="M469.333333 256h21.333334a10.666667 10.666667 0 1 0 0-21.333333h-21.333334a10.666667 10.666667 0 1 0 0 21.333333zM554.666667 256h21.333333a10.666667 10.666667 0 1 0 0-21.333333h-21.333333a10.666667 10.666667 0 1 0 0 21.333333zM469.333333 309.333333h170.666667a10.666667 10.666667 0 1 0 0-21.333333h-170.666667a10.666667 10.666667 0 1 0 0 21.333333zM469.333333 373.333333h170.666667a10.666667 10.666667 0 1 0 0-21.333333h-170.666667a10.666667 10.666667 0 1 0 0 21.333333zM234.666667 353.024H192a21.333333 21.333333 0 0 0-21.333333 21.333333v23.296a21.333333 21.333333 0 0 0 21.333333 21.333334h42.666667V448a21.333333 21.333333 0 0 0 21.333333 21.333333h42.666667a21.333333 21.333333 0 0 0 21.333333-21.333333v-29.013333h42.624a21.333333 21.333333 0 0 0 21.333333-21.333334v-23.296a21.333333 21.333333 0 0 0-21.333333-21.333333H320v-6.208h42.624a21.333333 21.333333 0 0 0 21.333333-21.333333v-25.6a21.333333 21.333333 0 0 0-21.333333-21.333334h-21.653333l38.848-52.522666A21.333333 21.333333 0 0 0 362.666667 192h-42.666667a21.333333 21.333333 0 0 0-17.877333 9.685333L277.333333 239.722667l-24.789333-38.037334A21.333333 21.333333 0 0 0 234.666667 192H192a21.333333 21.333333 0 0 0-17.152 34.026667l38.826667 52.522666H192a21.333333 21.333333 0 0 0-21.333333 21.333334v25.6a21.333333 21.333333 0 0 0 21.333333 21.333333h42.666667v6.186667z" fill="#333549" p-id="1981"></path><path d="M256 325.482667H192v-25.6h64L192 213.333333h42.666667l42.666666 65.450667L320 213.333333h42.666667l-64 86.549334h63.957333v25.6H298.666667v48.853333h63.957333v23.317333H298.666667V448h-42.666667v-50.346667H192v-23.296h64z" fill="#7DACFF" p-id="1982"></path><path d="M298.666667 405.333333h640a64 64 0 0 1 64 64v533.333334l-131.605334-85.333334H298.666667a64 64 0 0 1-64-64V469.333333a64 64 0 0 1 64-64z" fill="#333549" p-id="1983"></path><path d="M981.333333 469.333333a42.666667 42.666667 0 0 0-42.666666-42.666666H298.666667a42.666667 42.666667 0 0 0-42.666667 42.666666v384a42.666667 42.666667 0 0 0 42.666667 42.666667h572.394666a21.333333 21.333333 0 0 1 11.605334 3.413333l98.666666 64V469.333333z" fill="#FFEEB4" p-id="1984"></path><path d="M341.333333 469.333333h554.666667a42.666667 42.666667 0 0 1 42.666667 42.666667v298.666667a42.666667 42.666667 0 0 1-42.666667 42.666666H341.333333a42.666667 42.666667 0 0 1-42.666666-42.666666V512a42.666667 42.666667 0 0 1 42.666666-42.666667z" fill="#333549" p-id="1985"></path><path d="M341.333333 490.666667a21.333333 21.333333 0 0 0-21.333333 21.333333v298.666667a21.333333 21.333333 0 0 0 21.333333 21.333333h554.666667a21.333333 21.333333 0 0 0 21.333333-21.333333V512a21.333333 21.333333 0 0 0-21.333333-21.333333H341.333333z" fill="#FFFFFF" p-id="1986"></path><path d="M576.64 768c0.192-1.706667 0.277333-3.413333 0.277333-5.12 0-28.928-23.786667-52.352-53.12-52.352-29.333333 0-53.12 23.424-53.12 52.352 0 1.706667 0.106667 3.413333 0.277334 5.12h-13.248c-18.218667 0-24.810667-1.877333-31.466667-5.376a36.864 36.864 0 0 1-15.445333-15.232c-3.562667-6.549333-5.461333-13.44-5.461334-31.018667 0-17.557333 7.765333-46.208 16.533334-61.568 8.746667-15.36 48.021333-85.824 53.568-96.106666 5.546667-10.304 15.146667-17.237333 22.058666-20.437334 6.912-3.2 17.28-4.928 25.962667-4.928H787.626667c26.944 0 37.696 15.744 38.912 35.648 1.237333 19.904 5.461333 128.426667 5.461333 147.413334 0 18.944-1.898667 24.448-5.461333 30.997333a36.864 36.864 0 0 1-15.445334 15.232c-6.656 3.498667-13.248 5.376-31.466666 5.376h-12.330667c0.170667-1.706667 0.256-3.413333 0.256-5.12 0-28.928-23.786667-52.352-53.12-52.352-29.312 0-53.098667 23.424-53.098667 52.352 0 1.706667 0.085333 3.413333 0.256 5.12H576.64z" fill="#333549" p-id="1987"></path><path d="M714.453333 689.194667a74.304 74.304 0 0 1 72.597334 57.365333c7.722667-0.277333 10.88-1.109333 14.101333-2.816a15.530667 15.530667 0 0 0 6.634667-6.528c2.304-4.202667 2.88-7.125333 2.88-20.842667 0-16.853333-4.053333-124.053333-5.418667-146.069333-0.704-11.562667-4.650667-15.637333-17.621333-15.637333H523.456c-6.250667 0-13.461333 1.322667-16.981333 2.944-4.693333 2.176-9.749333 6.549333-12.245334 11.2-5.738667 10.624-45.12 81.301333-53.845333 96.554666-6.976 12.245333-13.717333 37.269333-13.717333 51.008 0 12.864 0.810667 17.066667 2.88 20.842667a15.530667 15.530667 0 0 0 6.634666 6.528c3.328 1.770667 6.613333 2.602667 14.997334 2.837333a74.304 74.304 0 0 1 72.618666-57.386666A74.304 74.304 0 0 1 596.437333 746.666667h45.376a74.304 74.304 0 0 1 72.618667-57.472z" fill="#7DACFF" p-id="1988"></path><path d="M522.666667 806.4a42.666667 42.666667 0 1 0 0-85.333333 42.666667 42.666667 0 0 0 0 85.333333z" fill="#333549" p-id="1989"></path><path d="M522.666667 785.066667a21.333333 21.333333 0 1 1 0-42.666667 21.333333 21.333333 0 0 1 0 42.666667z" fill="#B9BECA" p-id="1990"></path><path d="M714.666667 806.4a42.666667 42.666667 0 1 0 0-85.333333 42.666667 42.666667 0 0 0 0 85.333333z" fill="#333549" p-id="1991"></path><path d="M714.666667 785.066667a21.333333 21.333333 0 1 1 0-42.666667 21.333333 21.333333 0 0 1 0 42.666667z" fill="#B9BECA" p-id="1992"></path><path d="M434.794667 626.538667c-10.453333 0-29.141333 13.098667-32.533334 23.850666-4.544 14.378667-6.549333 27.605333-1.109333 34.965334 3.968 5.376 10.090667 6.826667 22.570667 8.192 6.464 0.704 14.357333 1.130667 18.986666 1.130666 5.333333 0 17.429333-3.285333 26.410667-7.104 5.802667-2.474667 10.346667-5.12 13.504-8.277333 6.314667-6.357333 6.933333-15.658667-0.554667-21.973333-21.034667-17.706667-38.805333-30.784-47.274666-30.784z" fill="#333549" p-id="1993"></path><path d="M460.778667 667.946667c-6.613333 2.794667-16.170667 5.397333-18.069334 5.397333-3.882667 0-10.986667-0.384-16.704-1.002667a85.376 85.376 0 0 1-6.933333-1.002666c0.853333-2.986667 2.133333-10.069333 3.541333-14.549334 0.533333-1.664 10.88-8.917333 12.181334-8.917333 0.213333 0 14.506667 10.474667 26.346666 19.904a59.690667 59.690667 0 0 1-0.362666 0.170667z" fill="#FFEEB4" p-id="1994"></path><path d="M625.664 565.333333h129.92a32 32 0 0 1 31.957333 30.186667l1.813334 32a32 32 0 0 1-30.144 33.770667c-0.896 0.042667-0.896 0.042667-1.813334 0.042666h-131.733333a32 32 0 0 1-32-32V597.333333a32 32 0 0 1 32-32z" fill="#333549" p-id="1995"></path><path d="M625.664 586.666667a10.666667 10.666667 0 0 0-10.666667 10.666666v32a10.666667 10.666667 0 0 0 10.666667 10.666667h132.352a10.666667 10.666667 0 0 0 10.026667-11.264l-1.792-32a10.666667 10.666667 0 0 0-10.666667-10.069333h-129.92z" fill="#B9BECA" p-id="1996"></path><path d="M538.688 565.333333h6.165333c19.776 0 31.488 12.437333 30.656 29.184L576 632c0 20.010667-11.882667 29.333333-31.146667 29.333333H509.653333c-18.986667 0-32-14.826667-26.624-32.426666l0.832-2.005334c11.136-20.437333 18.773333-34.133333 22.912-41.130666 8.149333-13.738667 17.813333-20.437333 31.893334-20.437334z" fill="#333549" p-id="1997"></path><path d="M509.674667 640h35.178666c8.469333 0 9.813333-1.066667 9.813334-7.850667l-0.490667-37.994666c0.277333-5.312-1.792-7.488-9.322667-7.488h-6.165333c-5.738667 0-8.96 2.218667-13.525333 9.962666-3.904 6.613333-11.221333 19.733333-21.909334 39.274667-0.384 2.538667 1.450667 4.096 6.421334 4.096z" fill="#B9BECA" p-id="1998"></path></svg>