<?xml version="1.0" standalone="no"?><!DOCTYPE svg PUBLIC "-//W3C//DTD SVG 1.1//EN" "http://www.w3.org/Graphics/SVG/1.1/DTD/svg11.dtd"><svg t="1587637831854" class="icon" viewBox="0 0 1024 1024" version="1.1" xmlns="http://www.w3.org/2000/svg" p-id="1948" xmlns:xlink="http://www.w3.org/1999/xlink" width="16" height="16"><defs><style type="text/css"></style></defs><path d="M387.072 899.072c-4.096 10.24-16.384 16.384-26.624 12.288-10.24-4.096-16.384-16.384-12.288-26.624l286.72-765.952c4.096-10.24 16.384-16.384 26.624-12.288 10.24 4.096 16.384 16.384 12.288 26.624l-286.72 765.952zM204.8 225.28c0-45.056 36.864-81.92 81.92-81.92h81.92c45.056 0 81.92 36.864 81.92 81.92v204.8c0 45.056-36.864 81.92-81.92 81.92h-81.92c-45.056 0-81.92-36.864-81.92-81.92v-204.8z m368.64 368.64c0-45.056 36.864-81.92 81.92-81.92h81.92c45.056 0 81.92 36.864 81.92 81.92v204.8c0 45.056-36.864 81.92-81.92 81.92h-81.92c-45.056 0-81.92-36.864-81.92-81.92v-204.8z m-327.68-368.64v204.8c0 22.528 18.432 40.96 40.96 40.96h81.92c22.528 0 40.96-18.432 40.96-40.96v-204.8c0-22.528-18.432-40.96-40.96-40.96h-81.92c-22.528 0-40.96 18.432-40.96 40.96z m368.64 368.64v204.8c0 22.528 18.432 40.96 40.96 40.96h81.92c22.528 0 40.96-18.432 40.96-40.96v-204.8c0-22.528-18.432-40.96-40.96-40.96h-81.92c-22.528 0-40.96 18.432-40.96 40.96z" p-id="1949" fill="#515151"></path></svg>